<svg width="31" height="31" viewBox="0 0 31 31" fill="none" xmlns="http://www.w3.org/2000/svg">
<path d="M15.0721 11.9552C14.3644 11.9555 13.6726 12.1656 13.0842 12.559C12.4959 12.9524 12.0374 13.5115 11.7667 14.1654C11.496 14.8194 11.4253 15.5389 11.5636 16.2331C11.7018 16.9272 12.0428 17.5648 12.5433 18.0651C13.0439 18.5655 13.6816 18.9062 14.3758 19.0442C15.07 19.1822 15.7895 19.1112 16.4433 18.8403C17.0972 18.5694 17.6561 18.1107 18.0492 17.5222C18.4424 16.9337 18.6523 16.2418 18.6523 15.534C18.6516 14.5849 18.2741 13.6748 17.6028 13.0038C16.9315 12.3327 16.0213 11.9556 15.0721 11.9552V11.9552ZM23.4395 9.20435C23.2573 8.74264 22.9822 8.32328 22.6312 7.9723C22.2802 7.62132 21.8609 7.3462 21.3991 7.16401C19.9902 6.6078 16.6354 6.73259 15.0721 6.73259C13.5088 6.73259 10.1575 6.6031 8.74445 7.16401C8.28274 7.3462 7.86338 7.62132 7.5124 7.9723C7.16142 8.32328 6.8863 8.74264 6.70411 9.20435C6.14857 10.6133 6.27269 13.9714 6.27269 15.5334C6.27269 17.0953 6.14857 20.4494 6.70679 21.8631C6.88898 22.3248 7.1641 22.7441 7.51508 23.0951C7.86607 23.4461 8.28542 23.7212 8.74714 23.9034C10.1561 24.4596 13.5108 24.3348 15.0748 24.3348C16.6388 24.3348 19.9888 24.4643 21.4018 23.9034C21.8635 23.7212 22.2829 23.4461 22.6339 23.0951C22.9849 22.7441 23.26 22.3248 23.4422 21.8631C24.0024 20.4541 23.8736 17.096 23.8736 15.534C23.8736 13.9721 24.0024 10.6187 23.4422 9.20503L23.4395 9.20435ZM15.0721 21.0358C13.984 21.0358 12.9203 20.7131 12.0155 20.1086C11.1108 19.504 10.4056 18.6448 9.98918 17.6395C9.57277 16.6342 9.46381 15.5279 9.6761 14.4607C9.88839 13.3935 10.4124 12.4132 11.1818 11.6437C11.9512 10.8743 12.9316 10.3503 13.9988 10.138C15.066 9.92573 16.1722 10.0347 17.1776 10.4511C18.1829 10.8675 19.0421 11.5727 19.6467 12.4774C20.2512 13.3822 20.5739 14.4459 20.5739 15.534C20.5748 16.2568 20.4331 16.9726 20.1569 17.6405C19.8807 18.3084 19.4755 18.9153 18.9644 19.4263C18.4534 19.9374 17.8465 20.3426 17.1786 20.6188C16.5107 20.895 15.7949 21.0367 15.0721 21.0358V21.0358ZM20.8007 11.0857C20.5466 11.0858 20.2983 11.0106 20.087 10.8696C19.8757 10.7286 19.711 10.528 19.6137 10.2934C19.5164 10.0588 19.4909 9.80053 19.5404 9.55137C19.5899 9.30222 19.7121 9.07334 19.8917 8.89367C20.0713 8.71401 20.3001 8.59164 20.5492 8.54203C20.7983 8.49243 21.0566 8.51782 21.2913 8.615C21.526 8.71217 21.7266 8.87677 21.8677 9.08797C22.0088 9.29917 22.0842 9.54748 22.0842 9.8015C22.0849 9.97018 22.0523 10.1373 21.9882 10.2934C21.9242 10.4495 21.83 10.5913 21.711 10.7109C21.592 10.8304 21.4505 10.9253 21.2948 10.9901C21.139 11.0549 20.972 11.0883 20.8033 11.0884L20.8007 11.0857ZM26.8808 0.504883H3.2635C2.40937 0.504883 1.59021 0.844188 0.986242 1.44816C0.382274 2.05212 0.0429688 2.87128 0.0429688 3.72542L0.0429688 27.3427C0.0429688 28.1968 0.382274 29.016 0.986242 29.6199C1.59021 30.2239 2.40937 30.5632 3.2635 30.5632H26.8808C27.7349 30.5632 28.5541 30.2239 29.158 29.6199C29.762 29.016 30.1013 28.1968 30.1013 27.3427V3.72542C30.1013 2.87128 29.762 2.05212 29.158 1.44816C28.5541 0.844188 27.7349 0.504883 26.8808 0.504883V0.504883ZM25.7321 19.9623C25.6456 21.6819 25.2531 23.2056 23.9977 24.4576C22.7424 25.7096 21.22 26.1102 19.5024 26.192C17.7304 26.292 12.4179 26.292 10.6459 26.192C8.92628 26.1055 7.40793 25.7123 6.15058 24.4576C4.89323 23.2029 4.49804 21.6786 4.41619 19.9623C4.31622 18.1896 4.31622 12.8764 4.41619 11.1058C4.50274 9.38618 4.89055 7.86246 6.15058 6.61048C7.41061 5.3585 8.93299 4.96264 10.6459 4.88079C12.4179 4.78081 17.7304 4.78081 19.5024 4.88079C21.222 4.96734 22.7451 5.36051 23.9977 6.61518C25.2504 7.86985 25.6503 9.39423 25.7321 11.1139C25.8321 12.8798 25.8321 18.1883 25.7321 19.9623Z" fill="#001F24"/>
</svg>
