<svg width="41" height="31" viewBox="0 0 41 31" fill="none" xmlns="http://www.w3.org/2000/svg">
<path d="M34.206 2.80817C34.195 2.78652 34.1768 2.76955 34.1547 2.76031C31.5932 1.56462 28.8902 0.711989 26.1132 0.223771C26.088 0.218999 26.0619 0.222442 26.0388 0.23361C26.0156 0.244778 25.9964 0.263103 25.984 0.285978C25.616 0.965668 25.2819 1.66382 24.9829 2.37778C21.9895 1.91545 18.9446 1.91545 15.9512 2.37778C15.6503 1.66201 15.3108 0.963681 14.9343 0.285978C14.9214 0.2636 14.9022 0.245697 14.8791 0.234601C14.8561 0.223506 14.8302 0.219732 14.8051 0.223771C12.0278 0.710964 9.32458 1.56365 6.76351 2.76038C6.74159 2.76984 6.72309 2.78599 6.71057 2.80659C1.58893 10.5885 0.185925 18.179 0.874194 25.6756C0.87613 25.694 0.881678 25.7118 0.890508 25.7279C0.899338 25.7441 0.911269 25.7582 0.925592 25.7696C3.90787 28.0163 7.24359 29.7312 10.7904 30.8411C10.8154 30.8487 10.842 30.8484 10.8668 30.8401C10.8916 30.8319 10.9133 30.8161 10.929 30.7949C11.6908 29.7403 12.3658 28.6236 12.9471 27.4561C12.9551 27.4401 12.9597 27.4225 12.9605 27.4046C12.9613 27.3866 12.9584 27.3687 12.9519 27.352C12.9455 27.3353 12.9356 27.3201 12.923 27.3076C12.9103 27.295 12.8952 27.2854 12.8787 27.2792C11.8142 26.8648 10.7838 26.3653 9.7969 25.7853C9.77897 25.7746 9.76391 25.7596 9.75306 25.7415C9.7422 25.7235 9.73588 25.703 9.73465 25.6819C9.73342 25.6607 9.73733 25.6396 9.74601 25.6204C9.7547 25.6012 9.76791 25.5844 9.78447 25.5716C9.99154 25.4138 10.1987 25.2496 10.3965 25.0838C10.414 25.069 10.4353 25.0596 10.4579 25.0565C10.4804 25.0534 10.5034 25.0568 10.5241 25.0663C16.9895 28.0684 23.9892 28.0684 30.378 25.0663C30.3989 25.0562 30.4221 25.0523 30.4449 25.0552C30.4678 25.058 30.4895 25.0673 30.5073 25.0822C30.7051 25.248 30.9122 25.4138 31.1209 25.5716C31.1375 25.5843 31.1508 25.6009 31.1597 25.6201C31.1685 25.6392 31.1725 25.6603 31.1715 25.6814C31.1704 25.7026 31.1642 25.7231 31.1535 25.7412C31.1428 25.7593 31.1278 25.7745 31.11 25.7853C30.1254 26.3702 29.0939 26.8694 28.0267 27.2776C28.0102 27.284 27.9951 27.2939 27.9826 27.3067C27.97 27.3194 27.9602 27.3347 27.9539 27.3516C27.9476 27.3684 27.9448 27.3864 27.9458 27.4044C27.9467 27.4225 27.9514 27.4401 27.9596 27.4561C28.5506 28.6171 29.2246 29.7324 29.9761 30.7931C29.9914 30.8148 30.013 30.8311 30.0378 30.8397C30.0627 30.8483 30.0896 30.8487 30.1147 30.8409C33.6679 29.7347 37.0094 28.0197 39.9955 25.7696C40.01 25.7588 40.0221 25.745 40.031 25.729C40.0398 25.7131 40.0453 25.6954 40.0469 25.6772C40.8709 17.0104 38.6674 9.48202 34.206 2.80817ZM13.9127 21.111C11.9661 21.111 10.3622 19.2935 10.3622 17.0614C10.3622 14.8294 11.935 13.0118 13.9127 13.0118C15.9058 13.0118 17.4942 14.8452 17.4631 17.0613C17.4631 19.2935 15.8902 21.111 13.9127 21.111ZM27.0398 21.111C25.0933 21.111 23.4894 19.2935 23.4894 17.0614C23.4894 14.8294 25.0622 13.0118 27.0398 13.0118C29.033 13.0118 30.6213 14.8452 30.5902 17.0613C30.5902 19.2935 29.033 21.111 27.0398 21.111Z" fill="#001F24"/>
</svg>
