<svg width="668" height="668" viewBox="0 0 668 668" fill="none" xmlns="http://www.w3.org/2000/svg">
<path fill-rule="evenodd" clip-rule="evenodd" d="M334.001 668C334.001 483.537 184.464 334 0 334C184.464 334 334.001 184.463 334.001 0C334.001 184.463 483.537 334 668 334C483.537 334 334.001 483.537 334.001 668Z" fill="white"/>
<path d="M517.204 320.588L501.243 317.12L508.181 285.198C517.755 241.146 489.773 197.624 445.721 188.05C401.669 178.476 358.147 206.458 348.573 250.51L341.636 282.431L325.675 278.963C308.118 275.147 290.631 286.39 286.816 303.946L252.128 463.554C248.312 481.111 259.555 498.597 277.111 502.413L468.64 544.039C486.197 547.854 503.684 536.612 507.499 519.055L542.188 359.448C546.003 341.891 534.761 324.404 517.204 320.588ZM380.495 257.448C386.253 230.953 412.289 214.214 438.783 219.972C465.278 225.73 482.017 251.766 476.259 278.26L469.322 310.182L373.557 289.369L380.495 257.448ZM475.578 512.117L284.049 470.491L318.737 310.884L510.266 352.51L475.578 512.117ZM390.22 443.422C407.777 447.238 425.263 435.995 429.079 418.438C432.895 400.881 421.652 383.395 404.095 379.579C386.538 375.763 369.052 387.006 365.236 404.563C361.42 422.12 372.663 439.606 390.22 443.422Z" fill="#00363D"/>
<g clip-path="url(#clip0_869_584)">
<path d="M168.45 138.087L118.202 186.692L132.844 226.458C146.387 263.241 184.655 288.211 222.135 283.895C253.465 262.876 266.404 219.052 252.861 182.269L238.22 142.503L168.45 138.087ZM195.268 210.924L241.941 193.74C248.461 222.347 239.081 253.421 217.084 270.175L195.292 210.991L148.619 228.175L134.71 190.398L173.794 152.601L195.268 210.924Z" fill="#006874"/>
</g>
<defs>
<clipPath id="clip0_869_584">
<rect width="170.525" height="169.502" fill="white" transform="translate(86 160.918) rotate(-20.2131)"/>
</clipPath>
</defs>
</svg>
