<svg width="137" height="137" viewBox="0 0 137 137" fill="none" xmlns="http://www.w3.org/2000/svg">
<path d="M68.4992 71.8894C82.0512 71.8894 93.0374 60.9033 93.0374 47.3512C93.0374 33.7991 82.0512 22.813 68.4992 22.813C54.9471 22.813 43.9609 33.7991 43.9609 47.3512C43.9609 60.9033 54.9471 71.8894 68.4992 71.8894Z" fill="#00FFC2"/>
<path d="M68.4992 96.429C54.9679 96.429 43.9609 85.4208 43.9609 71.8908C43.9609 58.3607 54.9691 47.3525 68.4992 47.3525C82.0292 47.3525 93.0374 58.3607 93.0374 71.8908C93.0374 85.4208 82.0292 96.429 68.4992 96.429ZM68.4992 56.2309C59.8644 56.2309 52.8406 63.256 52.8406 71.8895C52.8406 80.523 59.8656 87.5481 68.4992 87.5481C77.1327 87.5481 84.1578 80.523 84.1578 71.8895C84.1578 63.256 77.1327 56.2309 68.4992 56.2309Z" fill="#1E1E1E"/>
<path d="M101.918 22.8118V71.8895C101.918 80.816 98.4427 89.2073 92.1306 95.5194C85.8184 101.832 77.4272 105.307 68.5006 105.307C59.574 105.307 51.1815 101.832 44.8706 95.5194C38.5598 89.2073 35.0828 80.816 35.0828 71.8895V22.8118H26.2031V71.8895C26.2031 83.1869 30.6023 93.8095 38.5915 101.797C46.5806 109.786 57.2019 114.187 68.5006 114.187C79.7993 114.187 90.4206 109.786 98.4097 101.797C106.399 93.8082 110.798 83.1869 110.798 71.8882V22.8118H101.918Z" fill="#1E1E1E"/>
</svg>
