<svg width="557" height="417" viewBox="0 0 557 417" fill="none" xmlns="http://www.w3.org/2000/svg">
<g opacity="0.8">
<rect x="207.883" width="374" height="579" rx="30" transform="rotate(21.0412 207.883 0)" fill="#006874"/>
<rect x="205.652" y="55.9287" width="338" height="286" rx="14" transform="rotate(21.0412 205.652 55.9287)" fill="#00363D"/>
<circle cx="224.823" cy="38.1249" r="11.5" transform="rotate(21.0412 224.823 38.1249)" fill="#F88080"/>
<path d="M246.145 52.2193L246.749 41.9518L248.252 42.5298L247.814 48.9315C247.813 49.091 247.797 49.275 247.767 49.4834C247.74 49.6831 247.707 49.8854 247.669 50.0905C247.63 50.2955 247.591 50.4858 247.554 50.6614C247.525 50.8403 247.504 50.987 247.49 51.1016L247.116 50.9428C247.424 50.5314 247.662 50.2128 247.828 49.9869C248.004 49.7645 248.139 49.5963 248.232 49.4824C248.33 49.3598 248.414 49.2573 248.486 49.1748L251.721 45.6792L252.988 46.1667L252.994 50.909C253 51.1516 252.994 51.3891 252.975 51.6216C252.967 51.8488 252.949 52.077 252.921 52.3061C252.896 52.5266 252.871 52.7618 252.845 53.0117L252.47 52.9725C252.604 52.7541 252.705 52.5829 252.773 52.4589C252.852 52.3296 252.918 52.2247 252.969 52.1443C253.019 52.0639 253.069 51.9879 253.116 51.9162C253.167 51.8357 253.235 51.7369 253.32 51.6197C253.414 51.5057 253.54 51.3489 253.696 51.1493L257.621 46.1339L259.136 46.7169L252.704 54.7426L251.724 54.3656L251.508 47.7125L251.606 47.8101L247.098 52.5862L246.145 52.2193ZM257.213 56.4772L260.732 47.3307L266.494 49.5474L265.971 50.9063L261.62 49.2324L259.147 55.6612L263.498 57.335L262.976 58.6939L257.213 56.4772ZM259.397 52.7121L259.919 51.3532L264.323 53.0471L263.8 54.406L259.397 52.7121ZM268.012 60.7812C267.515 60.5902 267.078 60.3473 266.702 60.0524C266.334 59.7609 266.026 59.4174 265.778 59.0221C265.542 58.6213 265.365 58.173 265.246 57.6772L266.64 56.9385C266.832 57.7124 267.079 58.2924 267.38 58.6784C267.682 59.0644 268.103 59.3613 268.643 59.5691C268.974 59.6964 269.294 59.7597 269.605 59.7591C269.915 59.7584 270.184 59.6968 270.411 59.5742C270.638 59.4516 270.797 59.2727 270.887 59.0375C270.948 58.8807 270.978 58.7225 270.98 58.5631C270.981 58.4036 270.947 58.2454 270.877 58.0886C270.816 57.9352 270.717 57.777 270.58 57.6142C270.451 57.4547 270.287 57.2965 270.087 57.1397C269.891 56.9742 269.655 56.8083 269.379 56.6421C268.945 56.3654 268.584 56.0815 268.296 55.7907C268.008 55.4999 267.792 55.1916 267.647 54.8659C267.502 54.5403 267.43 54.2075 267.431 53.8678C267.435 53.5194 267.509 53.1579 267.653 52.7833C267.794 52.4174 268.003 52.1078 268.28 51.8546C268.567 51.6046 268.893 51.4201 269.258 51.3008C269.636 51.1762 270.041 51.1266 270.471 51.1521C270.904 51.1689 271.343 51.2627 271.787 51.4336C272.258 51.6146 272.666 51.8414 273.011 52.1142C273.356 52.3869 273.634 52.7039 273.845 53.0651C274.059 53.4176 274.2 53.8066 274.266 54.2321L272.896 54.8301C272.832 54.4756 272.728 54.1606 272.584 53.8852C272.444 53.6011 272.261 53.3609 272.037 53.1645C271.815 52.9594 271.557 52.7999 271.261 52.686C270.921 52.5553 270.605 52.4937 270.312 52.501C270.019 52.5084 269.762 52.5794 269.54 52.714C269.33 52.8434 269.177 53.0343 269.079 53.2869C269.009 53.4699 268.979 53.6531 268.988 53.8368C269.001 54.0116 269.053 54.1869 269.146 54.3625C269.25 54.5327 269.406 54.7126 269.613 54.9022C269.823 55.0832 270.085 55.2738 270.398 55.4742C270.837 55.7631 271.212 56.0623 271.523 56.3719C271.837 56.6728 272.083 56.9824 272.26 57.3007C272.438 57.619 272.54 57.9383 272.567 58.2586C272.602 58.5823 272.56 58.9009 272.439 59.2145C272.215 59.7981 271.885 60.2514 271.451 60.5744C271.017 60.8973 270.506 61.0809 269.919 61.1251C269.336 61.1606 268.7 61.0459 268.012 60.7812ZM275.131 63.37L278.127 55.5824L275.566 54.5972L276.089 53.2383L282.7 55.7817L282.178 57.1406L279.538 56.1253L276.542 63.9129L275.131 63.37ZM280.922 65.5977L284.44 56.4511L288.164 57.8837C288.661 58.0747 289.061 58.3736 289.364 58.7803C289.68 59.1817 289.878 59.6428 289.957 60.1634C290.037 60.6841 289.976 61.2058 289.775 61.7284C289.574 62.2511 289.27 62.6789 288.862 63.0119C288.453 63.3449 287.994 63.5634 287.484 63.6672C286.987 63.7657 286.489 63.7194 285.993 63.5284L283.68 62.6387L282.333 66.1405L280.922 65.5977ZM284.203 61.2798L286.489 62.1594C286.725 62.2499 286.963 62.2667 287.205 62.2097C287.45 62.1441 287.672 62.0241 287.869 61.8499C288.078 61.6704 288.234 61.4455 288.338 61.1755C288.442 60.9055 288.475 60.6381 288.437 60.3734C288.407 60.1121 288.322 59.8792 288.18 59.6748C288.039 59.4704 287.851 59.323 287.615 59.2325L285.329 58.3529L284.203 61.2798ZM287.394 68.0876L294.454 60.3032L295.891 60.8562L295.888 71.3549L294.385 70.7768L294.416 64.4585C294.413 64.3875 294.418 64.2193 294.43 63.9539C294.45 63.6919 294.468 63.3987 294.483 63.0744C294.498 62.7501 294.511 62.4552 294.523 62.1899C294.539 61.9158 294.547 61.7389 294.547 61.6592L294.853 61.7617C294.744 61.8897 294.606 62.0519 294.441 62.2482C294.284 62.4479 294.113 62.6573 293.929 62.8764C293.754 63.0988 293.583 63.3082 293.418 63.5045C293.255 63.6922 293.12 63.85 293.01 63.9779L288.832 68.6405L287.394 68.0876ZM289.837 66.4172L290.882 65.2594L295.038 66.8578L295.116 68.4479L289.837 66.4172ZM300.903 73.4341C300.267 73.1895 299.727 72.8517 299.283 72.4208C298.838 71.9899 298.501 71.49 298.269 70.9211C298.042 70.3435 297.929 69.7253 297.933 69.0666C297.945 68.4112 298.083 67.7395 298.348 67.0513C298.599 66.398 298.946 65.8361 299.387 65.3658C299.84 64.89 300.353 64.5175 300.926 64.2481C301.5 63.9788 302.102 63.8304 302.733 63.803C303.363 63.7755 303.992 63.8825 304.619 64.1237C305.064 64.2946 305.468 64.5302 305.833 64.8304C306.209 65.1253 306.52 65.46 306.766 65.8346C307.024 66.2039 307.203 66.5828 307.304 66.9715L305.986 67.5896C305.831 67.2398 305.654 66.9318 305.457 66.6658C305.271 66.3944 305.06 66.1632 304.823 65.9722C304.596 65.7846 304.347 65.6388 304.077 65.5349C303.65 65.3707 303.217 65.2993 302.779 65.3207C302.353 65.3368 301.945 65.4349 301.556 65.6152C301.175 65.7988 300.829 66.0607 300.518 66.4011C300.211 66.7328 299.966 67.1338 299.785 67.6042C299.594 68.1008 299.494 68.5822 299.485 69.0486C299.487 69.5096 299.573 69.9375 299.741 70.3322C299.909 70.7269 300.155 71.0764 300.478 71.3806C300.813 71.6795 301.215 71.9194 301.686 72.1004C301.973 72.2109 302.272 72.2807 302.58 72.3095C302.889 72.3383 303.194 72.3256 303.495 72.2713C303.796 72.2171 304.085 72.1283 304.363 72.005L304.626 73.4263C304.335 73.5845 303.979 73.6923 303.556 73.7499C303.143 73.8109 302.701 73.8159 302.231 73.7649C301.772 73.7086 301.33 73.5983 300.903 73.4341Z" fill="white"/>
<path d="M93.9625 349.394L97.4811 340.248L101.767 341.897C102.403 342.141 102.92 342.485 103.32 342.929C103.719 343.373 103.974 343.866 104.086 344.409C104.197 344.951 104.144 345.506 103.926 346.072C103.681 346.708 103.327 347.212 102.864 347.584C102.401 347.956 101.869 348.181 101.269 348.26C100.672 348.33 100.055 348.243 99.4195 347.999L97.7732 347.365L96.602 350.41L93.9625 349.394ZM98.7579 351.239L98.0205 346.215L101.034 347L101.907 352.451L98.7579 351.239ZM98.5271 345.405L99.7293 345.868C99.947 345.952 100.141 345.981 100.31 345.956C100.492 345.926 100.646 345.85 100.773 345.729C100.908 345.611 101.016 345.448 101.096 345.239C101.17 345.047 101.193 344.871 101.165 344.71C101.149 344.544 101.076 344.396 100.946 344.266C100.828 344.13 100.651 344.017 100.416 343.927L99.266 343.485L98.5271 345.405ZM101.894 352.446L109.085 344.712L111.306 345.566L111.433 356.115L108.637 355.039L108.711 350.478C108.719 350.171 108.725 349.909 108.729 349.69C108.733 349.472 108.741 349.27 108.753 349.084C108.767 348.89 108.785 348.687 108.807 348.475C108.832 348.254 108.87 347.999 108.922 347.709L109.366 347.88C109.21 348.13 109.067 348.345 108.938 348.525C108.812 348.697 108.685 348.858 108.557 349.009C108.441 349.154 108.307 349.307 108.155 349.469C108.011 349.634 107.84 349.833 107.64 350.066L104.638 353.501L101.894 352.446ZM104.246 351.791L105.808 350.186L110.055 351.82L110.061 354.027L104.246 351.791ZM112.222 356.419L115.741 347.272L120.027 348.921C120.663 349.166 121.18 349.51 121.58 349.953C121.979 350.397 122.234 350.89 122.346 351.433C122.457 351.976 122.403 352.53 122.186 353.097C121.941 353.732 121.587 354.236 121.124 354.608C120.661 354.98 120.129 355.206 119.529 355.285C118.932 355.355 118.315 355.268 117.679 355.023L116.033 354.39L114.862 357.434L112.222 356.419ZM117.018 358.264L116.28 353.24L119.294 354.024L120.167 359.475L117.018 358.264ZM116.787 352.43L117.989 352.892C118.207 352.976 118.401 353.005 118.57 352.981C118.752 352.951 118.906 352.875 119.033 352.754C119.168 352.636 119.276 352.472 119.356 352.263C119.43 352.071 119.453 351.895 119.425 351.734C119.409 351.568 119.336 351.42 119.206 351.29C119.088 351.155 118.911 351.042 118.676 350.951L117.526 350.509L116.787 352.43ZM121.396 359.948L122.275 357.661L123.882 358.279L125.642 353.706L124.035 353.088L124.914 350.801L130.951 353.123L130.071 355.41L128.464 354.792L126.705 359.365L128.312 359.983L127.432 362.27L121.396 359.948ZM131.631 363.885L134.224 357.143L131.402 356.057L132.327 353.653L140.872 356.94L139.947 359.344L137.047 358.228L134.453 364.971L131.631 363.885ZM141.217 367.573L142.971 363.012L142.816 363.688L141.129 357.039L144.265 358.245L145.529 363.381L143.78 362.664L147.871 359.632L150.929 360.809L145.322 364.817L145.86 364.004L144.065 368.668L141.217 367.573ZM148.909 370.697C148.5 370.539 148.225 370.304 148.086 369.99C147.947 369.677 147.958 369.311 148.118 368.893C148.266 368.509 148.504 368.241 148.833 368.088C149.171 367.937 149.531 367.936 149.915 368.084C150.324 368.241 150.598 368.477 150.738 368.79C150.877 369.104 150.866 369.47 150.706 369.888C150.558 370.271 150.316 370.538 149.978 370.688C149.649 370.841 149.293 370.844 148.909 370.697ZM150.699 366.045C150.289 365.888 150.015 365.652 149.876 365.339C149.736 365.025 149.747 364.659 149.908 364.241C150.055 363.858 150.294 363.589 150.623 363.436C150.96 363.286 151.321 363.284 151.704 363.432C152.113 363.589 152.388 363.825 152.527 364.139C152.667 364.452 152.656 364.818 152.495 365.236C152.348 365.619 152.105 365.886 151.767 366.036C151.438 366.19 151.082 366.193 150.699 366.045ZM160.843 375.273C160.111 374.991 159.482 374.614 158.954 374.141C158.434 373.671 158.029 373.14 157.736 372.548C157.456 371.95 157.307 371.312 157.287 370.635C157.268 369.957 157.392 369.27 157.66 368.573C157.928 367.876 158.297 367.283 158.765 366.793C159.242 366.307 159.788 365.942 160.401 365.698C161.019 365.445 161.682 365.32 162.391 365.323C163.108 365.329 163.842 365.476 164.591 365.764C165.018 365.929 165.416 366.142 165.785 366.404C166.166 366.66 166.5 366.964 166.785 367.313C167.083 367.658 167.323 368.046 167.508 368.476L165.063 369.801C164.998 369.606 164.902 369.414 164.775 369.225C164.656 369.039 164.497 368.868 164.297 368.711C164.11 368.549 163.872 368.413 163.585 368.302C163.288 368.188 162.985 368.132 162.675 368.132C162.377 368.128 162.091 368.183 161.817 368.297C161.551 368.415 161.308 368.592 161.088 368.827C160.867 369.062 160.687 369.362 160.546 369.728C160.419 370.059 160.36 370.382 160.369 370.695C160.378 371.009 160.451 371.302 160.586 371.574C160.721 371.846 160.917 372.091 161.173 372.31C161.429 372.528 161.74 372.708 162.106 372.848C162.367 372.949 162.63 373.005 162.896 373.017C163.161 373.029 163.413 373.011 163.652 372.963C163.894 372.906 164.114 372.826 164.314 372.723L164.846 375.357C164.525 375.514 164.141 375.616 163.693 375.664C163.244 375.711 162.772 375.705 162.275 375.644C161.782 375.574 161.305 375.45 160.843 375.273ZM169.978 378.787C169.255 378.509 168.638 378.136 168.127 377.67C167.617 377.203 167.221 376.671 166.941 376.074C166.661 375.476 166.512 374.838 166.492 374.161C166.481 373.487 166.608 372.806 166.873 372.117C167.141 371.42 167.504 370.83 167.96 370.345C168.428 369.856 168.967 369.483 169.575 369.227C170.184 368.971 170.834 368.841 171.525 368.837C172.217 368.833 172.92 368.968 173.634 369.243C174.357 369.521 174.969 369.892 175.471 370.355C175.982 370.821 176.377 371.353 176.657 371.951C176.937 372.549 177.083 373.185 177.093 373.859C177.116 374.528 176.995 375.206 176.73 375.894C176.462 376.591 176.094 377.185 175.626 377.674C175.166 378.168 174.632 378.542 174.023 378.798C173.415 379.054 172.765 379.184 172.073 379.188C171.391 379.195 170.692 379.061 169.978 378.787ZM170.97 376.168C171.266 376.282 171.556 376.334 171.84 376.323C172.133 376.316 172.408 376.252 172.665 376.13C172.933 376.004 173.166 375.828 173.362 375.604C173.567 375.382 173.73 375.115 173.851 374.802C173.971 374.488 174.03 374.18 174.026 373.879C174.03 373.581 173.974 373.299 173.856 373.033C173.75 372.763 173.591 372.527 173.378 372.325C173.175 372.126 172.925 371.97 172.629 371.856C172.332 371.742 172.038 371.689 171.745 371.697C171.461 371.707 171.185 371.776 170.916 371.903C170.659 372.024 170.428 372.195 170.223 372.416C170.027 372.641 169.868 372.91 169.748 373.223C169.627 373.537 169.565 373.843 169.56 374.141C169.564 374.442 169.619 374.729 169.725 374.999C169.843 375.265 170.003 375.497 170.207 375.695C170.419 375.897 170.674 376.054 170.97 376.168ZM176.509 381.149L180.027 372.003L182.458 372.937L183.704 379.642L181.736 378.87L187.188 374.757L189.54 375.662L186.021 384.808L183.303 383.763L184.143 381.581C184.444 380.797 184.733 380.098 185.009 379.484C185.294 378.874 185.603 378.278 185.937 377.696L185.934 378.64L182.409 381.214L181.546 380.882L180.694 376.624L181.338 375.927C181.209 376.547 181.043 377.173 180.84 377.805C180.649 378.432 180.391 379.168 180.066 380.013L179.227 382.195L176.509 381.149ZM188.108 385.611L191.626 376.465L194.057 377.4L195.303 384.104L193.335 383.332L198.787 379.219L201.139 380.124L197.62 389.27L194.902 388.225L195.742 386.043C196.043 385.259 196.332 384.56 196.608 383.946C196.893 383.336 197.202 382.74 197.536 382.158L197.533 383.102L194.008 385.676L193.146 385.344L192.293 381.086L192.937 380.389C192.808 381.009 192.642 381.635 192.439 382.267C192.248 382.894 191.99 383.63 191.665 384.475L190.826 386.657L188.108 385.611ZM204.073 391.903C203.35 391.625 202.733 391.252 202.223 390.786C201.712 390.32 201.317 389.787 201.037 389.19C200.757 388.592 200.607 387.954 200.588 387.277C200.577 386.603 200.704 385.922 200.969 385.234C201.237 384.537 201.599 383.946 202.055 383.462C202.524 382.972 203.062 382.599 203.671 382.343C204.279 382.087 204.929 381.957 205.621 381.953C206.312 381.949 207.015 382.084 207.729 382.359C208.452 382.637 209.065 383.008 209.567 383.471C210.077 383.937 210.473 384.47 210.753 385.067C211.033 385.665 211.178 386.301 211.189 386.975C211.212 387.644 211.091 388.322 210.826 389.01C210.558 389.707 210.189 390.301 209.721 390.79C209.261 391.284 208.727 391.658 208.119 391.914C207.51 392.17 206.86 392.3 206.169 392.304C205.486 392.311 204.787 392.178 204.073 391.903ZM205.065 389.284C205.362 389.398 205.652 389.45 205.936 389.439C206.229 389.432 206.503 389.368 206.76 389.246C207.029 389.12 207.261 388.944 207.458 388.72C207.663 388.499 207.826 388.231 207.946 387.918C208.067 387.604 208.125 387.297 208.121 386.995C208.126 386.697 208.069 386.415 207.951 386.15C207.845 385.879 207.686 385.643 207.474 385.441C207.27 385.243 207.02 385.086 206.724 384.973C206.428 384.859 206.133 384.805 205.841 384.813C205.556 384.823 205.28 384.892 205.011 385.019C204.755 385.14 204.524 385.311 204.319 385.532C204.122 385.757 203.964 386.026 203.843 386.339C203.723 386.653 203.66 386.959 203.655 387.257C203.659 387.559 203.714 387.845 203.82 388.115C203.938 388.381 204.099 388.613 204.302 388.811C204.515 389.013 204.769 389.171 205.065 389.284ZM210.604 394.265L214.123 385.119L216.645 386.089L218.615 393.522L218.084 393.108C218.175 392.743 218.253 392.423 218.319 392.148C218.393 391.877 218.459 391.627 218.517 391.399C218.587 391.166 218.655 390.937 218.721 390.713C218.796 390.491 218.884 390.25 218.984 389.989C219.085 389.728 219.202 389.423 219.336 389.074L219.99 387.376L222.707 388.421L219.189 397.568L216.641 396.588L214.465 388.4L215.403 389.121C215.323 389.46 215.249 389.757 215.181 390.011C215.125 390.259 215.068 390.487 215.008 390.694C214.948 390.901 214.884 391.107 214.816 391.31C214.76 391.509 214.685 391.73 214.591 391.974C214.509 392.212 214.406 392.493 214.282 392.815L213.322 395.311L210.604 394.265Z" fill="white"/>
<path d="M490.034 145.305L492.889 137.883L493.231 138.435L491.061 138.695L491.155 137.321L494.101 136.955L494.78 137.216L491.458 145.853L490.034 145.305ZM488.337 145.387L488.86 144.028L493.224 145.707L492.701 147.066L488.337 145.387ZM497.394 149.022C496.697 148.753 496.17 148.331 495.812 147.753C495.463 147.179 495.287 146.491 495.285 145.69C495.287 144.881 495.474 143.993 495.845 143.026C496.217 142.059 496.672 141.279 497.211 140.686C497.752 140.084 498.345 139.687 498.989 139.495C499.641 139.306 500.316 139.346 501.013 139.614C501.71 139.882 502.237 140.305 502.595 140.882C502.953 141.46 503.131 142.153 503.13 142.963C503.132 143.764 502.947 144.647 502.575 145.614C502.203 146.581 501.746 147.366 501.205 147.967C500.666 148.56 500.071 148.951 499.418 149.14C498.766 149.329 498.091 149.29 497.394 149.022ZM497.887 147.741C498.523 147.986 499.129 147.879 499.705 147.42C500.285 146.953 500.784 146.175 501.203 145.087C501.622 143.998 501.771 143.09 501.65 142.364C501.533 141.629 501.156 141.139 500.521 140.894C499.885 140.65 499.277 140.761 498.697 141.228C498.121 141.686 497.623 142.46 497.204 143.548C496.786 144.637 496.635 145.549 496.752 146.284C496.872 147.011 497.251 147.496 497.887 147.741ZM505.331 152.075C504.634 151.807 504.107 151.384 503.749 150.806C503.4 150.232 503.224 149.544 503.222 148.744C503.224 147.934 503.41 147.046 503.782 146.079C504.154 145.112 504.609 144.332 505.148 143.739C505.689 143.137 506.282 142.74 506.926 142.548C507.578 142.359 508.253 142.399 508.95 142.667C509.647 142.935 510.174 143.358 510.532 143.935C510.89 144.513 511.068 145.207 511.067 146.016C511.069 146.817 510.884 147.701 510.512 148.668C510.14 149.635 509.683 150.419 509.141 151.021C508.603 151.614 508.008 152.005 507.355 152.193C506.703 152.382 506.028 152.343 505.331 152.075ZM505.824 150.794C506.459 151.039 507.066 150.932 507.642 150.474C508.221 150.007 508.721 149.229 509.14 148.14C509.559 147.051 509.708 146.143 509.587 145.417C509.47 144.682 509.093 144.192 508.457 143.947C507.822 143.703 507.214 143.814 506.634 144.281C506.058 144.739 505.56 145.513 505.141 146.602C504.722 147.691 504.572 148.603 504.689 149.338C504.809 150.064 505.188 150.55 505.824 150.794ZM516.611 156.264L520.129 147.117L521.541 147.66L518.022 156.807L516.611 156.264ZM510.639 153.967L514.158 144.82L515.569 145.363L512.051 154.51L510.639 153.967ZM512.746 150.322L513.269 148.963L519.254 151.266L518.731 152.625L512.746 150.322ZM520.58 157.791L524.098 148.644L527.822 150.077C528.319 150.268 528.719 150.567 529.022 150.973C529.338 151.375 529.536 151.836 529.615 152.357C529.695 152.877 529.634 153.399 529.433 153.922C529.232 154.444 528.928 154.872 528.519 155.205C528.111 155.538 527.652 155.756 527.142 155.86C526.644 155.959 526.147 155.913 525.651 155.722L523.338 154.832L521.991 158.334L520.58 157.791ZM523.861 153.473L526.147 154.353C526.383 154.443 526.621 154.46 526.863 154.403C527.108 154.337 527.329 154.217 527.526 154.043C527.736 153.863 527.892 153.639 527.996 153.369C528.1 153.099 528.133 152.831 528.094 152.567C528.065 152.305 527.98 152.072 527.838 151.868C527.697 151.664 527.509 151.516 527.273 151.426L524.987 150.546L523.861 153.473Z" fill="white"/>
<path d="M215.188 157.082C217.938 159.732 216.831 169.043 216.831 169.043L209.946 247.725C208.883 257.494 214.515 265.023 222.83 268.221L267.488 285.401C264.51 283.599 264.628 272.827 264.628 272.827L269.09 193.648C269.972 181.631 265.64 176.491 257.316 173.288L215.188 157.082ZM404.196 229.792C395.852 226.582 389.288 227.531 381.939 237.06L332.059 298.767C332.059 298.767 324.962 306.854 321.509 306.182L366.168 323.362C374.522 326.576 383.677 324.735 389.466 316.784L437.089 253.773C437.089 253.773 442.573 246.146 446.451 246.047L404.196 229.792ZM305.828 192.532L269.766 286.277L319.485 305.403L355.548 211.658L305.828 192.532Z" fill="#F6FEFF"/>
</g>
</svg>
