<svg width="574" height="445" viewBox="0 0 574 445" fill="none" xmlns="http://www.w3.org/2000/svg">
<g opacity="0.8">
<rect y="148.903" width="374" height="579" rx="30" transform="rotate(-23.4617 0 148.903)" fill="#006874"/>
<rect x="37.6133" y="190.355" width="338" height="286" rx="14" transform="rotate(-23.4617 37.6133 190.355)" fill="#00363D"/>
<circle cx="38.8075" cy="164.22" r="11.5" transform="rotate(-23.4617 38.8075 164.22)" fill="#F8DE80"/>
<path d="M65.6818 158.703C65.0568 158.975 64.4349 159.112 63.816 159.116C63.1971 159.121 62.6059 159.001 62.0422 158.757C61.4749 158.505 60.9616 158.142 60.5023 157.67C60.0515 157.194 59.6794 156.618 59.3858 155.942C59.1071 155.3 58.9602 154.656 58.945 154.012C58.9346 153.355 59.0396 152.729 59.2599 152.135C59.4802 151.541 59.8056 151.013 60.2361 150.552C60.6666 150.09 61.1901 149.726 61.8065 149.458C62.2432 149.269 62.6967 149.153 63.1671 149.112C63.6424 149.058 64.099 149.079 64.5369 149.173C64.9797 149.256 65.3732 149.401 65.7173 149.607L65.2107 150.972C64.8546 150.831 64.5129 150.735 64.1854 150.684C63.8628 150.621 63.5502 150.604 63.2476 150.633C62.9536 150.659 62.6739 150.73 62.4085 150.845C61.989 151.027 61.6304 151.279 61.3329 151.602C61.0402 151.912 60.8181 152.268 60.6668 152.669C60.524 153.067 60.461 153.496 60.4779 153.957C60.491 154.409 60.5978 154.866 60.7985 155.329C61.0103 155.817 61.2763 156.23 61.5965 156.57C61.9216 156.897 62.2824 157.142 62.679 157.305C63.0756 157.469 63.4957 157.546 63.9393 157.537C64.3877 157.515 64.8431 157.404 65.3055 157.203C65.588 157.081 65.8495 156.921 66.0901 156.725C66.3306 156.529 66.5391 156.307 66.7157 156.057C66.8922 155.807 67.0363 155.541 67.1477 155.259L68.3317 156.088C68.2351 156.405 68.0565 156.732 67.7957 157.069C67.5436 157.402 67.2319 157.715 66.8607 158.009C66.4943 158.29 66.1014 158.521 65.6818 158.703ZM74.5138 154.87C73.8803 155.145 73.2436 155.284 72.6039 155.287C71.9727 155.286 71.3668 155.168 70.786 154.931C70.2101 154.683 69.6901 154.329 69.2259 153.869C68.7666 153.397 68.3921 152.827 68.1022 152.159C67.8124 151.491 67.6537 150.832 67.6262 150.183C67.6036 149.521 67.7 148.899 67.9154 148.318C68.1358 147.723 68.4612 147.196 68.8917 146.734C69.3307 146.269 69.867 145.899 70.5006 145.624C71.1342 145.349 71.7665 145.211 72.3977 145.212C73.0374 145.209 73.6452 145.332 74.2211 145.581C74.8056 145.826 75.3275 146.184 75.7868 146.656C76.2509 147.116 76.6261 147.676 76.9122 148.335C77.1983 148.994 77.3527 149.655 77.3754 150.316C77.4029 150.966 77.3065 151.588 77.0861 152.182C76.8744 152.772 76.549 153.3 76.1099 153.765C75.6794 154.227 75.1474 154.595 74.5138 154.87ZM73.9286 153.522C74.3652 153.332 74.728 153.078 75.017 152.759C75.3146 152.437 75.5329 152.073 75.6719 151.666C75.8073 151.251 75.8623 150.815 75.8369 150.358C75.8164 149.889 75.7039 149.419 75.4995 148.948C75.2951 148.477 75.0304 148.078 74.7054 147.751C74.3852 147.412 74.0292 147.155 73.6375 146.979C73.242 146.794 72.8249 146.701 72.3861 146.698C71.9559 146.691 71.5225 146.783 71.0859 146.972C70.6492 147.162 70.2821 147.418 69.9846 147.74C69.6956 148.059 69.4773 148.423 69.3296 148.833C69.1906 149.239 69.1356 149.675 69.1647 150.141C69.1901 150.598 69.3068 151.066 69.5149 151.546C69.7193 152.017 69.9816 152.422 70.3018 152.761C70.622 153.1 70.9779 153.358 71.3697 153.534C71.77 153.706 72.1853 153.795 72.6155 153.802C73.0542 153.805 73.4919 153.711 73.9286 153.522ZM80.741 152.015L76.8393 143.025L78.2006 142.434L83.7886 146.343L83.1281 146.614L84.1338 139.859L85.4181 139.302L89.3198 148.292L87.9328 148.894L86.3331 145.208C85.9987 144.437 85.7148 143.736 85.4815 143.105C85.2568 142.47 85.0596 141.828 84.8899 141.179L85.276 141.576L84.3082 147.399L83.4606 147.767L78.6587 144.509L78.5714 143.922C78.9145 144.454 79.2352 145.017 79.5332 145.61C79.8362 146.191 80.1678 146.897 80.5283 147.727L82.128 151.413L80.741 152.015ZM91.8403 147.198L87.9386 138.208L89.2999 137.617L94.8879 141.525L94.2273 141.797L95.2331 135.042L96.5174 134.484L100.419 143.474L99.0321 144.076L97.4324 140.39C97.098 139.62 96.8141 138.919 96.5808 138.288C96.3561 137.653 96.1589 137.011 95.9892 136.362L96.3753 136.759L95.4075 142.582L94.5599 142.95L89.7579 139.692L89.6707 139.104C90.0138 139.637 90.3344 140.2 90.6325 140.793C90.9354 141.374 91.2671 142.079 91.6276 142.91L93.2273 146.596L91.8403 147.198ZM106.758 140.876C106.125 141.151 105.488 141.29 104.848 141.292C104.217 141.292 103.611 141.173 103.03 140.937C102.454 140.688 101.934 140.334 101.47 139.874C101.011 139.402 100.636 138.832 100.347 138.164C100.057 137.496 99.8981 136.838 99.8706 136.188C99.8479 135.527 99.9443 134.905 100.16 134.323C100.38 133.729 100.706 133.201 101.136 132.739C101.575 132.274 102.111 131.904 102.745 131.629C103.379 131.354 104.011 131.217 104.642 131.218C105.282 131.215 105.89 131.338 106.466 131.586C107.05 131.831 107.572 132.189 108.031 132.662C108.495 133.122 108.87 133.681 109.157 134.34C109.443 135 109.597 135.66 109.62 136.322C109.647 136.971 109.551 137.593 109.331 138.187C109.119 138.778 108.793 139.305 108.354 139.771C107.924 140.232 107.392 140.601 106.758 140.876ZM106.173 139.527C106.61 139.338 106.972 139.083 107.261 138.765C107.559 138.442 107.777 138.078 107.916 137.672C108.052 137.257 108.107 136.821 108.081 136.364C108.061 135.895 107.948 135.424 107.744 134.954C107.54 134.483 107.275 134.084 106.95 133.757C106.63 133.418 106.274 133.16 105.882 132.984C105.486 132.8 105.069 132.706 104.63 132.703C104.2 132.696 103.767 132.788 103.33 132.977C102.894 133.167 102.526 133.423 102.229 133.745C101.94 134.064 101.722 134.428 101.574 134.838C101.435 135.245 101.38 135.681 101.409 136.146C101.434 136.603 101.551 137.072 101.759 137.551C101.964 138.022 102.226 138.427 102.546 138.766C102.866 139.105 103.222 139.363 103.614 139.539C104.014 139.711 104.43 139.8 104.86 139.807C105.299 139.81 105.736 139.717 106.173 139.527ZM112.985 138.02L109.084 129.03L110.329 128.49L119.02 133.463L118.865 133.668C118.737 133.469 118.607 133.25 118.474 133.013C118.336 132.768 118.194 132.509 118.045 132.238C117.902 131.954 117.753 131.657 117.598 131.348C117.449 131.026 117.293 130.692 117.132 130.345C116.971 129.997 116.809 129.635 116.646 129.259L115.364 126.305L116.751 125.703L120.652 134.693L119.381 135.244L110.897 130.502L110.961 130.261C111.23 130.765 111.458 131.195 111.643 131.552C111.833 131.897 111.993 132.194 112.121 132.443C112.255 132.68 112.361 132.878 112.44 133.037C112.516 133.188 112.576 133.314 112.62 133.417C112.674 133.516 112.717 133.604 112.75 133.681L114.372 137.418L112.985 138.02ZM125.083 132.77L118.317 125.023L119.794 124.382L123.969 129.255C124.08 129.369 124.198 129.511 124.322 129.681C124.443 129.842 124.561 130.01 124.677 130.183C124.793 130.357 124.9 130.519 124.996 130.671C125.101 130.819 125.188 130.938 125.259 131.03L124.881 131.179C124.812 130.669 124.758 130.275 124.719 129.997C124.688 129.716 124.666 129.501 124.653 129.354C124.637 129.199 124.625 129.066 124.618 128.957L124.475 124.197L125.721 123.656L129.049 127.034C129.224 127.203 129.386 127.377 129.535 127.556C129.689 127.723 129.836 127.898 129.977 128.082C130.114 128.256 130.26 128.442 130.417 128.638L130.122 128.873C130.064 128.624 130.016 128.431 129.978 128.295C129.944 128.147 129.917 128.026 129.897 127.933C129.877 127.84 129.859 127.751 129.843 127.667C129.822 127.574 129.802 127.456 129.78 127.312C129.767 127.165 129.747 126.966 129.719 126.713L129.002 120.385L130.492 119.739L131.53 129.972L130.566 130.39L125.749 125.796L125.887 125.797L126.02 132.363L125.083 132.77ZM135.962 128.048L132.06 119.058L137.723 116.6L138.303 117.936L134.026 119.792L136.769 126.111L141.045 124.254L141.625 125.59L135.962 128.048ZM134.88 123.832L134.3 122.497L138.628 120.618L139.208 121.954L134.88 123.832ZM142.913 125.031L142.491 114.531L143.904 113.918L151.26 121.408L149.783 122.049L145.376 117.521C145.325 117.473 145.21 117.349 145.033 117.152C144.864 116.95 144.671 116.729 144.454 116.487C144.238 116.245 144.04 116.026 143.863 115.828C143.682 115.622 143.564 115.49 143.508 115.433L143.798 115.291C143.81 115.459 143.826 115.671 143.845 115.927C143.873 116.18 143.898 116.449 143.921 116.734C143.951 117.016 143.976 117.285 143.996 117.541C144.012 117.788 144.026 117.996 144.037 118.164L144.325 124.418L142.913 125.031ZM143.484 122.128L143.418 120.569L147.502 118.797L148.672 119.876L143.484 122.128ZM152.842 120.722L148.941 111.732L150.328 111.13L153.65 118.784L157.862 116.956L158.442 118.291L152.842 120.722ZM161.16 117.112L157.838 109.457L155.321 110.55L154.741 109.214L161.239 106.394L161.819 107.729L159.225 108.855L162.547 116.51L161.16 117.112ZM172.72 112.094L168.819 103.104L170.206 102.502L174.107 111.492L172.72 112.094ZM166.851 114.641L162.95 105.652L164.337 105.05L168.238 114.039L166.851 114.641ZM165.8 110.565L165.22 109.23L171.102 106.677L171.681 108.012L165.8 110.565ZM180.221 108.839L176.319 99.849L180.069 98.2215C180.643 97.9725 181.164 97.8481 181.632 97.8485C182.1 97.8488 182.507 97.9774 182.852 98.2344C183.203 98.4791 183.484 98.8455 183.696 99.3335C183.907 99.8215 183.951 100.296 183.825 100.758C183.709 101.215 183.438 101.612 183.015 101.949L182.903 101.692C183.343 101.603 183.761 101.605 184.157 101.697C184.549 101.781 184.898 101.951 185.201 102.205C185.514 102.456 185.761 102.792 185.943 103.211C186.129 103.639 186.226 104.05 186.234 104.443C186.247 104.824 186.169 105.184 186 105.522C185.84 105.856 185.601 106.163 185.285 106.442C184.965 106.713 184.57 106.951 184.099 107.156L180.221 108.839ZM181.028 106.901L183.442 105.853C183.793 105.701 184.067 105.521 184.262 105.315C184.465 105.104 184.589 104.873 184.632 104.62C184.679 104.355 184.642 104.081 184.519 103.799C184.404 103.533 184.233 103.338 184.006 103.213C183.787 103.084 183.529 103.028 183.231 103.045C182.93 103.054 182.603 103.135 182.252 103.287L179.902 104.307L181.028 106.901ZM179.322 102.971L181.608 101.979C181.865 101.868 182.07 101.718 182.222 101.53C182.383 101.338 182.48 101.128 182.513 100.9C182.555 100.668 182.526 100.436 182.426 100.205C182.258 99.8199 182.002 99.5803 181.656 99.4863C181.31 99.3923 180.897 99.4493 180.418 99.6574L178.286 100.583L179.322 102.971ZM188.025 105.452L187.603 94.9514L189.016 94.3383L196.372 101.829L194.895 102.47L190.488 97.942C190.437 97.8932 190.322 97.7699 190.145 97.5722C189.976 97.3708 189.783 97.1492 189.566 96.9076C189.35 96.6659 189.152 96.4462 188.975 96.2485C188.794 96.0422 188.676 95.9104 188.62 95.8531L188.91 95.712C188.922 95.8799 188.938 96.0918 188.957 96.3478C188.985 96.6002 189.01 96.8691 189.033 97.1545C189.063 97.4363 189.088 97.7051 189.108 97.9612C189.124 98.2087 189.138 98.4163 189.149 98.5842L189.437 104.839L188.025 105.452ZM188.596 102.548L188.53 100.99L192.614 99.2172L193.784 100.296L188.596 102.548ZM197.954 101.142L194.053 92.1522L195.298 91.6116L203.989 96.5847L203.834 96.7895C203.706 96.5903 203.576 96.3722 203.443 96.135C203.306 95.8893 203.163 95.6308 203.015 95.3594C202.871 95.0757 202.722 94.7792 202.567 94.4698C202.418 94.1482 202.262 93.8137 202.101 93.4664C201.94 93.1191 201.778 92.7571 201.615 92.3804L200.333 89.4266L201.72 88.8246L205.622 97.8144L204.35 98.3662L195.867 93.6238L195.93 93.3826C196.199 93.8863 196.427 94.3167 196.612 94.6737C196.803 95.0184 196.962 95.3155 197.091 95.5649C197.224 95.802 197.33 96.0001 197.41 96.159C197.485 96.3094 197.545 96.436 197.59 96.5387C197.643 96.6378 197.686 96.7258 197.719 96.8029L199.341 100.54L197.954 101.142ZM208.112 93.4978L207.361 91.9773L210.029 85.2185L211.852 84.427L208.112 93.4978ZM208.138 96.7221L204.237 87.7323L205.624 87.1303L209.525 96.1201L208.138 96.7221ZM214.097 94.1358L208.66 91.032L209.303 89.6999L215.831 93.3833L214.097 94.1358ZM224.962 89.5727C224.329 89.8477 223.692 89.9866 223.053 89.9896C222.421 89.9888 221.815 89.8702 221.235 89.6339C220.659 89.3853 220.139 89.0311 219.675 88.5712C219.215 88.099 218.841 87.529 218.551 86.8612C218.261 86.1934 218.102 85.5348 218.075 84.8854C218.052 84.2237 218.149 83.6019 218.364 83.02C218.584 82.4258 218.91 81.898 219.34 81.4364C219.779 80.9711 220.316 80.601 220.949 80.326C221.583 80.0511 222.215 79.914 222.846 79.9147C223.486 79.9118 224.094 80.0346 224.67 80.2832C225.254 80.5281 225.776 80.8866 226.235 81.3588C226.7 81.8187 227.075 82.3783 227.361 83.0375C227.647 83.6968 227.801 84.3572 227.824 85.0189C227.852 85.6683 227.755 86.2901 227.535 86.8843C227.323 87.4748 226.998 88.0026 226.559 88.4679C226.128 88.9294 225.596 89.2977 224.962 89.5727ZM224.377 88.2242C224.814 88.0347 225.177 87.7806 225.466 87.4618C225.763 87.1394 225.982 86.775 226.121 86.3687C226.256 85.9539 226.311 85.5179 226.286 85.0609C226.265 84.5916 226.153 84.1215 225.948 83.6506C225.744 83.1798 225.479 82.7808 225.154 82.4539C224.834 82.1146 224.478 81.8571 224.086 81.6812C223.691 81.4967 223.274 81.403 222.835 81.4001C222.405 81.3935 221.971 81.485 221.535 81.6745C221.098 81.864 220.731 82.12 220.433 82.4425C220.144 82.7612 219.926 83.1256 219.778 83.5356C219.639 83.9419 219.584 84.3778 219.613 84.8434C219.639 85.3004 219.755 85.7686 219.964 86.2481C220.168 86.719 220.43 87.124 220.75 87.4633C221.071 87.8025 221.427 88.0601 221.818 88.236C222.219 88.4082 222.634 88.4976 223.064 88.5042C223.503 88.507 223.941 88.4137 224.377 88.2242ZM231.19 86.7174L227.288 77.7276L228.675 77.1256L232.577 86.1154L231.19 86.7174ZM230.145 82.6227L229.565 81.2871L234.202 79.2749L234.781 80.6105L230.145 82.6227ZM228.484 78.7956L227.904 77.46L233.118 75.197L233.698 76.5326L228.484 78.7956ZM241.577 82.209L241.156 71.7086L242.568 71.0955L249.925 78.5859L248.448 79.2269L244.041 74.6992C243.989 74.6504 243.875 74.5272 243.697 74.3294C243.528 74.128 243.336 73.9064 243.119 73.6648C242.902 73.4231 242.705 73.2034 242.528 73.0057C242.346 72.7994 242.228 72.6676 242.173 72.6103L242.463 72.4692C242.474 72.6371 242.49 72.849 242.51 73.1051C242.538 73.3574 242.563 73.6263 242.585 73.9117C242.616 74.1935 242.641 74.4624 242.66 74.7184C242.676 74.9659 242.69 75.1736 242.702 75.3414L242.99 81.5958L241.577 82.209ZM242.148 79.3055L242.082 77.7469L246.166 75.9744L247.337 77.0536L242.148 79.3055ZM254.783 76.5691C254.089 76.8701 253.404 76.9896 252.726 76.9278C252.044 76.8574 251.429 76.6255 250.882 76.2322C250.34 75.8266 249.922 75.2856 249.628 74.6092L247.22 69.0612L248.607 68.4592L250.965 73.8916C251.155 74.3283 251.428 74.6775 251.786 74.9394C252.14 75.1927 252.529 75.3496 252.952 75.4102C253.384 75.467 253.801 75.4081 254.203 75.2334C254.631 75.0476 254.972 74.7777 255.225 74.4236C255.487 74.0657 255.646 73.671 255.703 73.2393C255.756 72.7991 255.688 72.3607 255.499 71.924L253.141 66.4916L254.464 65.9175L256.872 71.4655C257.165 72.1419 257.271 72.8185 257.188 73.4954C257.11 74.16 256.864 74.7653 256.45 75.3114C256.032 75.8488 255.476 76.2681 254.783 76.5691ZM263.467 72.861C262.979 73.0728 262.497 73.2055 262.022 73.2592C261.555 73.3091 261.095 73.28 260.641 73.1718C260.192 73.0513 259.751 72.856 259.318 72.5859L259.795 71.0818C260.475 71.4991 261.057 71.7397 261.543 71.8036C262.029 71.8676 262.537 71.7844 263.068 71.554C263.393 71.4128 263.666 71.2332 263.887 71.0153C264.108 70.7973 264.256 70.565 264.332 70.3183C264.408 70.0716 264.396 69.8327 264.296 69.6016C264.229 69.4474 264.14 69.313 264.029 69.1984C263.918 69.0837 263.783 68.9948 263.624 68.9318C263.473 68.8651 263.291 68.8218 263.079 68.802C262.875 68.7784 262.647 68.7807 262.395 68.8088C262.139 68.8283 261.854 68.8756 261.541 68.9506C261.038 69.0571 260.581 69.1076 260.172 69.1021C259.763 69.0966 259.392 69.0285 259.061 68.8976C258.729 68.7668 258.445 68.58 258.207 68.3372C257.966 68.0858 257.765 67.7761 257.605 67.4079C257.449 67.0483 257.381 66.681 257.402 66.3059C257.431 65.9271 257.534 65.5669 257.711 65.2254C257.893 64.8716 258.147 64.553 258.471 64.2696C258.792 63.9777 259.171 63.737 259.608 63.5475C260.07 63.3468 260.52 63.2228 260.957 63.1755C261.395 63.1281 261.815 63.1593 262.219 63.2689C262.619 63.37 262.992 63.5491 263.337 63.8061L262.779 65.1929C262.485 64.9847 262.19 64.8328 261.895 64.7374C261.595 64.6334 261.297 64.59 260.999 64.6073C260.697 64.616 260.401 64.6836 260.11 64.8099C259.776 64.9548 259.507 65.1326 259.304 65.3431C259.1 65.5536 258.966 65.7846 258.902 66.0361C258.843 66.2754 258.868 66.5191 258.976 66.7674C259.054 66.9472 259.16 67.0993 259.296 67.2237C259.427 67.3395 259.588 67.4276 259.777 67.488C259.971 67.5362 260.208 67.5553 260.488 67.5454C260.765 67.527 261.086 67.4796 261.449 67.4031C261.965 67.3015 262.442 67.2521 262.881 67.255C263.316 67.2493 263.708 67.2978 264.058 67.4004C264.407 67.5029 264.704 67.659 264.948 67.8687C265.2 68.0747 265.393 68.3318 265.527 68.64C265.776 69.2136 265.859 69.7678 265.775 70.3025C265.692 70.8372 265.456 71.3261 265.069 71.769C264.677 72.2035 264.143 72.5674 263.467 72.861Z" fill="white"/>
<path d="M163.654 477.95L159.752 468.96L163.965 467.132C164.59 466.86 165.2 466.743 165.796 466.78C166.391 466.816 166.919 466.989 167.379 467.298C167.839 467.607 168.189 468.04 168.431 468.597C168.702 469.222 168.803 469.829 168.733 470.419C168.664 471.009 168.443 471.542 168.07 472.019C167.693 472.488 167.193 472.858 166.568 473.129L164.949 473.832L166.248 476.824L163.654 477.95ZM168.367 475.904L164.32 472.838L167.019 471.285L171.462 474.561L168.367 475.904ZM164.113 471.905L165.295 471.392C165.509 471.299 165.668 471.185 165.771 471.048C165.88 470.899 165.936 470.737 165.942 470.562C165.956 470.383 165.918 470.191 165.829 469.985C165.747 469.797 165.64 469.655 165.507 469.56C165.379 469.453 165.223 469.399 165.039 469.397C164.86 469.383 164.655 469.426 164.424 469.527L163.294 470.017L164.113 471.905ZM171.45 474.566L171.157 464.01L173.34 463.063L180.825 470.497L178.077 471.69L174.933 468.385C174.723 468.16 174.543 467.968 174.393 467.81C174.243 467.651 174.107 467.502 173.985 467.361C173.859 467.212 173.73 467.055 173.597 466.889C173.46 466.714 173.308 466.505 173.141 466.262L173.578 466.073C173.642 466.36 173.691 466.614 173.725 466.833C173.755 467.044 173.778 467.248 173.792 467.445C173.811 467.63 173.823 467.833 173.828 468.055C173.841 468.273 173.858 468.535 173.879 468.842L174.147 473.396L171.45 474.566ZM172.668 472.45L172.658 470.211L176.832 468.4L178.383 469.97L172.668 472.45ZM181.601 470.16L177.699 461.171L181.912 459.342C182.537 459.071 183.147 458.954 183.743 458.99C184.338 459.027 184.866 459.2 185.326 459.509C185.786 459.818 186.136 460.251 186.378 460.807C186.649 461.432 186.75 462.04 186.68 462.629C186.611 463.219 186.39 463.753 186.017 464.23C185.64 464.699 185.14 465.069 184.515 465.34L182.896 466.042L184.195 469.035L181.601 470.16ZM186.314 468.115L182.267 465.049L184.966 463.496L189.409 466.772L186.314 468.115ZM182.06 464.116L183.242 463.603C183.456 463.51 183.615 463.395 183.718 463.259C183.827 463.11 183.883 462.948 183.889 462.773C183.903 462.594 183.865 462.402 183.776 462.196C183.694 462.008 183.587 461.866 183.454 461.771C183.326 461.664 183.17 461.609 182.986 461.608C182.807 461.594 182.602 461.637 182.371 461.737L181.241 462.228L182.06 464.116ZM190.617 466.247L189.641 464L191.221 463.314L189.27 458.819L187.69 459.505L186.715 457.258L192.648 454.682L193.624 456.93L192.044 457.615L193.995 462.11L195.575 461.425L196.55 463.672L190.617 466.247ZM200.676 461.881L197.8 455.255L195.026 456.459L194.001 454.095L202.4 450.45L203.425 452.813L200.574 454.051L203.45 460.677L200.676 461.881ZM210.098 457.792L208.153 453.31L208.516 453.9L202.652 450.341L205.734 449.003L210.236 451.78L208.486 452.494L209.279 447.465L212.284 446.16L211.094 452.949L210.908 451.992L212.898 456.577L210.098 457.792ZM217.775 454.628C217.372 454.803 217.011 454.827 216.692 454.701C216.373 454.575 216.124 454.307 215.946 453.896C215.782 453.519 215.764 453.161 215.891 452.821C216.027 452.477 216.283 452.223 216.66 452.06C217.062 451.885 217.423 451.861 217.742 451.987C218.061 452.113 218.31 452.381 218.489 452.792C218.652 453.169 218.666 453.529 218.53 453.873C218.403 454.213 218.151 454.465 217.775 454.628ZM215.79 450.056C215.388 450.231 215.027 450.255 214.708 450.129C214.389 450.003 214.14 449.735 213.961 449.324C213.798 448.947 213.78 448.589 213.907 448.249C214.043 447.905 214.299 447.651 214.675 447.488C215.078 447.313 215.439 447.289 215.758 447.415C216.077 447.541 216.326 447.809 216.504 448.22C216.668 448.597 216.682 448.957 216.546 449.301C216.419 449.641 216.167 449.893 215.79 450.056ZM229.493 449.527C228.774 449.839 228.06 450.011 227.352 450.044C226.653 450.073 225.991 449.979 225.367 449.761C224.749 449.531 224.195 449.181 223.706 448.711C223.218 448.242 222.825 447.665 222.527 446.98C222.23 446.295 222.077 445.613 222.068 444.936C222.067 444.254 222.2 443.612 222.467 443.007C222.73 442.395 223.115 441.841 223.623 441.346C224.139 440.847 224.765 440.438 225.501 440.118C225.921 439.936 226.354 439.809 226.801 439.737C227.253 439.653 227.703 439.636 228.152 439.685C228.606 439.722 229.049 439.83 229.483 440.008L228.668 442.666C228.485 442.573 228.282 442.503 228.058 442.458C227.844 442.408 227.61 442.398 227.358 442.426C227.11 442.442 226.845 442.511 226.563 442.634C226.272 442.76 226.016 442.932 225.795 443.15C225.579 443.356 225.413 443.596 225.298 443.869C225.191 444.139 225.142 444.436 225.15 444.758C225.157 445.08 225.239 445.421 225.395 445.781C225.536 446.106 225.72 446.377 225.947 446.594C226.173 446.812 226.43 446.97 226.717 447.069C227.004 447.168 227.316 447.206 227.652 447.182C227.987 447.159 228.335 447.069 228.695 446.913C228.951 446.801 229.179 446.657 229.376 446.479C229.574 446.302 229.741 446.113 229.878 445.911C230.01 445.701 230.111 445.489 230.182 445.275L232.407 446.782C232.289 447.118 232.086 447.46 231.8 447.808C231.514 448.157 231.172 448.483 230.775 448.787C230.374 449.083 229.947 449.33 229.493 449.527ZM238.471 445.63C237.761 445.939 237.06 446.105 236.369 446.131C235.678 446.156 235.023 446.054 234.404 445.824C233.785 445.594 233.232 445.244 232.743 444.774C232.263 444.301 231.876 443.726 231.582 443.05C231.285 442.365 231.129 441.69 231.115 441.024C231.106 440.346 231.229 439.703 231.483 439.094C231.738 438.485 232.11 437.937 232.601 437.449C233.091 436.962 233.687 436.565 234.39 436.261C235.1 435.952 235.797 435.787 236.479 435.766C237.17 435.741 237.825 435.843 238.444 436.073C239.063 436.303 239.612 436.655 240.092 437.128C240.577 437.589 240.967 438.158 241.26 438.834C241.557 439.519 241.711 440.2 241.72 440.878C241.738 441.552 241.619 442.193 241.365 442.802C241.11 443.412 240.738 443.96 240.247 444.447C239.765 444.931 239.173 445.326 238.471 445.63ZM237.344 443.067C237.635 442.941 237.878 442.774 238.073 442.568C238.277 442.357 238.428 442.119 238.526 441.852C238.629 441.574 238.671 441.285 238.654 440.988C238.645 440.686 238.574 440.381 238.44 440.073C238.307 439.765 238.133 439.505 237.918 439.292C237.713 439.076 237.475 438.915 237.205 438.809C236.939 438.69 236.66 438.633 236.367 438.638C236.083 438.639 235.795 438.703 235.504 438.829C235.213 438.956 234.966 439.124 234.762 439.335C234.567 439.541 234.418 439.784 234.315 440.063C234.217 440.329 234.172 440.613 234.181 440.914C234.198 441.212 234.274 441.515 234.408 441.823C234.542 442.132 234.711 442.394 234.917 442.61C235.131 442.822 235.371 442.987 235.636 443.106C235.906 443.213 236.183 443.266 236.468 443.264C236.761 443.259 237.053 443.194 237.344 443.067ZM244.785 442.737L240.884 433.747L243.272 432.711L248.86 436.619L246.916 437.448L247.921 430.693L250.233 429.69L254.135 438.679L251.463 439.839L250.533 437.694C250.198 436.924 249.914 436.223 249.681 435.591C249.456 434.956 249.259 434.314 249.089 433.666L249.749 434.341L249.039 438.648L248.191 439.016L244.599 436.576L244.569 435.628C244.912 436.16 245.233 436.723 245.531 437.316C245.834 437.897 246.165 438.603 246.526 439.433L247.457 441.578L244.785 442.737ZM256.186 437.789L252.284 428.799L254.673 427.763L260.261 431.671L258.316 432.5L259.322 425.745L261.633 424.742L265.535 433.731L262.864 434.891L261.933 432.746C261.598 431.976 261.315 431.275 261.081 430.643C260.857 430.008 260.659 429.366 260.49 428.718L261.149 429.393L260.439 433.7L259.591 434.068L255.999 431.628L255.969 430.68C256.312 431.212 256.633 431.775 256.931 432.368C257.234 432.949 257.566 433.655 257.926 434.485L258.857 436.63L256.186 437.789ZM271.982 431.086C271.272 431.394 270.571 431.561 269.88 431.586C269.189 431.612 268.534 431.509 267.915 431.279C267.296 431.049 266.743 430.699 266.254 430.23C265.774 429.756 265.387 429.182 265.093 428.505C264.796 427.82 264.64 427.145 264.626 426.48C264.617 425.802 264.74 425.159 264.994 424.55C265.249 423.941 265.621 423.392 266.112 422.905C266.602 422.417 267.199 422.021 267.901 421.716C268.611 421.408 269.308 421.243 269.99 421.221C270.681 421.196 271.336 421.299 271.955 421.529C272.574 421.759 273.123 422.11 273.603 422.584C274.088 423.045 274.478 423.613 274.771 424.29C275.068 424.975 275.222 425.656 275.231 426.334C275.249 427.008 275.13 427.649 274.876 428.258C274.621 428.867 274.249 429.415 273.758 429.903C273.276 430.387 272.684 430.781 271.982 431.086ZM270.855 428.523C271.146 428.397 271.389 428.23 271.584 428.023C271.788 427.813 271.939 427.574 272.037 427.308C272.14 427.029 272.182 426.741 272.165 426.443C272.156 426.142 272.085 425.837 271.951 425.529C271.818 425.22 271.644 424.96 271.429 424.748C271.224 424.532 270.986 424.371 270.716 424.264C270.45 424.145 270.171 424.088 269.879 424.093C269.594 424.095 269.306 424.158 269.015 424.285C268.724 424.411 268.477 424.58 268.273 424.79C268.078 424.997 267.929 425.24 267.826 425.518C267.728 425.785 267.683 426.069 267.692 426.37C267.709 426.668 267.785 426.971 267.919 427.279C268.053 427.587 268.222 427.849 268.428 428.065C268.642 428.277 268.882 428.443 269.147 428.562C269.417 428.669 269.694 428.721 269.979 428.72C270.272 428.715 270.564 428.649 270.855 428.523ZM278.296 428.193L274.395 419.203L276.873 418.127L283.489 422.047L282.82 422.124C282.629 421.8 282.46 421.517 282.314 421.275C282.177 421.029 282.049 420.805 281.931 420.602C281.817 420.387 281.705 420.176 281.595 419.97C281.494 419.759 281.387 419.526 281.276 419.269C281.164 419.012 281.034 418.712 280.886 418.37L280.161 416.7L282.832 415.541L286.734 424.531L284.23 425.618L276.939 421.304L278.113 421.16C278.294 421.458 278.449 421.722 278.578 421.95C278.713 422.167 278.832 422.37 278.934 422.559C279.037 422.749 279.135 422.94 279.229 423.133C279.328 423.314 279.429 423.524 279.533 423.764C279.642 423.992 279.766 424.264 279.903 424.58L280.968 427.033L278.296 428.193Z" fill="white"/>
<path d="M311.274 52.1114C310.641 52.3864 310.025 52.4805 309.428 52.3938C308.839 52.3033 308.191 52.0048 307.483 51.4983L308.266 50.3494C308.618 50.5733 308.941 50.7434 309.235 50.8597C309.535 50.9637 309.816 51.0145 310.08 51.012C310.343 51.0096 310.599 50.9545 310.848 50.8467C311.147 50.7167 311.394 50.5231 311.588 50.2661C311.778 50.0005 311.892 49.7016 311.931 49.3693C311.97 49.037 311.917 48.7039 311.772 48.37C311.627 48.0361 311.444 47.7795 311.224 47.6004C311 47.4127 310.747 47.3091 310.464 47.2895C310.177 47.2614 309.875 47.3161 309.558 47.4536C309.413 47.5168 309.266 47.6008 309.118 47.7057C308.975 47.7982 308.827 47.9135 308.673 48.0515C308.515 48.1809 308.348 48.3348 308.171 48.5134L307.346 47.666L308.793 43.4055L309.236 43.6866L305.409 45.3476L304.851 44.0634L310.001 41.8282L310.481 42.2304L308.956 46.7689L308.49 46.5743C308.543 46.5103 308.642 46.4321 308.785 46.3395C308.932 46.2346 309.058 46.1599 309.16 46.1153C309.537 45.9518 309.92 45.8723 310.308 45.8766C310.702 45.8687 311.074 45.9411 311.425 46.0939C311.781 46.2344 312.102 46.4462 312.388 46.7292C312.678 46.9999 312.907 47.328 313.074 47.7132C313.327 48.2954 313.412 48.879 313.33 49.464C313.253 50.0366 313.037 50.5579 312.681 51.0277C312.326 51.4975 311.857 51.8587 311.274 52.1114ZM318.74 48.8713C318.055 49.1686 317.382 49.2366 316.722 49.0754C316.071 48.9105 315.464 48.5432 314.901 47.9734C314.334 47.3951 313.845 46.6308 313.433 45.6805C313.02 44.7301 312.798 43.8549 312.766 43.0547C312.73 42.246 312.875 41.5474 313.199 40.9589C313.533 40.3667 314.042 39.9219 314.726 39.6246C315.411 39.3274 316.084 39.2593 316.744 39.4205C317.404 39.5817 318.017 39.9514 318.584 40.5298C319.146 41.0995 319.634 41.8595 320.046 42.8099C320.459 43.7602 320.683 44.6398 320.719 45.4485C320.75 46.2486 320.6 46.9448 320.267 47.537C319.934 48.1292 319.425 48.574 318.74 48.8713ZM318.193 47.6127C318.818 47.3414 319.176 46.8404 319.266 46.1096C319.352 45.3702 319.163 44.4654 318.698 43.3951C318.234 42.3249 317.704 41.573 317.109 41.1395C316.51 40.6974 315.898 40.6119 315.273 40.8832C314.648 41.1545 314.292 41.6598 314.206 42.3992C314.116 43.13 314.304 44.0306 314.768 45.1008C315.233 46.171 315.764 46.9271 316.363 47.3693C316.958 47.8028 317.568 47.884 318.193 47.6127ZM329.721 43.9525L325.819 34.9627L327.206 34.3607L331.108 43.3505L329.721 43.9525ZM323.852 46.4998L319.95 37.51L321.337 36.908L325.239 45.8978L323.852 46.4998ZM322.8 42.4236L322.221 41.0879L328.102 38.5351L328.682 39.8707L322.8 42.4236ZM333.622 42.2595L329.72 33.2697L333.38 31.6811C333.868 31.4693 334.363 31.4021 334.865 31.4794C335.371 31.5445 335.835 31.7348 336.257 32.0503C336.679 32.3658 337.001 32.7803 337.224 33.294C337.447 33.8077 337.53 34.3264 337.472 34.85C337.415 35.3735 337.24 35.8511 336.949 36.2826C336.663 36.7018 336.276 37.0173 335.788 37.2291L333.515 38.2157L335.009 41.6575L333.622 42.2595ZM332.935 36.8801L335.183 35.9046C335.414 35.8043 335.596 35.649 335.729 35.4389C335.858 35.2201 335.931 34.9796 335.95 34.7172C335.973 34.4426 335.927 34.1726 335.812 33.9072C335.696 33.6418 335.532 33.428 335.32 33.266C335.116 33.1003 334.891 32.9941 334.647 32.9474C334.403 32.9007 334.166 32.9276 333.934 33.0279L331.687 34.0033L332.935 36.8801Z" fill="white"/>
<g clip-path="url(#clip0_866_487)">
<path d="M295.329 359.548L356.324 205.622L317.78 190.662L298.811 238.717L295.329 359.548Z" fill="#89938D"/>
<path d="M202.242 145.065L141.541 298.843L295.331 359.548L298.813 238.717L317.79 190.679L202.242 145.065Z" fill="white"/>
</g>
</g>
<defs>
<clipPath id="clip0_866_487">
<rect width="424" height="294" fill="white" transform="translate(14.1445 226.704) rotate(-23.4617)"/>
</clipPath>
</defs>
</svg>
