<svg width="286" height="163" viewBox="0 0 286 163" fill="none" xmlns="http://www.w3.org/2000/svg">
<rect x="142" y="17" width="127" height="127" rx="10" fill="white"/>
<rect x="-36" y="17" width="127" height="127" rx="10" fill="white"/>
<rect x="130" y="5" width="151" height="151" rx="19" stroke="white" stroke-opacity="0.6" stroke-width="9"/>
<rect x="-48" y="5" width="151" height="151" rx="19" stroke="white" stroke-opacity="0.6" stroke-width="9"/>
<path d="M199.695 93.76L196.463 80.529C198.416 80.0577 200.267 79.519 202.018 78.913C203.769 78.2397 205.385 77.5327 206.866 76.792C208.347 76.0513 209.593 75.2097 210.603 74.267C211.68 73.257 212.522 72.1797 213.128 71.035C213.734 69.823 214.037 68.5437 214.037 67.197C214.037 65.8503 213.7 64.7057 213.027 63.763C212.354 62.753 211.445 61.9787 210.3 61.44C209.155 60.9013 207.809 60.632 206.26 60.632C204.038 60.632 201.816 61.44 199.594 63.056C197.372 64.6047 195.318 67.1297 193.433 70.631L182.424 60.43C185.454 55.784 189.056 52.1817 193.231 49.623C197.473 47.0643 201.883 45.785 206.462 45.785C210.906 45.785 214.912 46.694 218.481 48.512C222.05 50.2627 224.878 52.7203 226.965 55.885C229.052 58.9823 230.096 62.4837 230.096 66.389C230.096 68.8803 229.557 71.338 228.48 73.762C227.47 76.186 226.022 78.4753 224.137 80.63C222.319 82.7173 220.164 84.569 217.673 86.185C215.182 87.801 212.421 89.0467 209.391 89.922L208.381 93.76H199.695ZM196.059 110.122C196.059 107.429 196.867 105.24 198.483 103.557C200.099 101.874 202.186 101.032 204.745 101.032C207.506 101.032 209.66 101.84 211.209 103.456C212.758 105.005 213.532 107.227 213.532 110.122C213.532 112.748 212.724 114.903 211.108 116.586C209.492 118.269 207.371 119.111 204.745 119.111C201.984 119.111 199.83 118.337 198.281 116.788C196.8 115.239 196.059 113.017 196.059 110.122Z" fill="#D0F8FF"/>
</svg>
