<svg width="123" height="124" viewBox="0 0 123 124" fill="none" xmlns="http://www.w3.org/2000/svg">
<path d="M76.3407 1.69253C82.0372 -1.17925 88.9299 1.94512 90.5248 8.12196L97.4782 35.0519C97.9211 36.7673 98.8119 38.3343 100.059 39.5925L119.642 59.3436C124.133 63.8738 123.292 71.3946 117.91 74.8202L94.4468 89.7551C92.9522 90.7065 91.7371 92.0378 90.926 93.613L78.1929 118.34C75.2723 124.012 67.8596 125.536 62.9386 121.476L41.4842 103.776C40.1175 102.649 38.4758 101.905 36.7271 101.62L9.27534 97.1512C2.9788 96.1262 -0.761049 89.5471 1.57932 83.6125L11.7829 57.7386C12.4329 56.0904 12.6333 54.2991 12.3637 52.5481L8.13065 25.0589C7.15974 18.7538 12.2612 13.164 18.6285 13.5559L46.3891 15.2646C48.1575 15.3735 49.923 15.0105 51.5051 14.213L76.3407 1.69253Z" fill="#006874"/>
</svg>
