<svg width="38" height="31" viewBox="0 0 38 31" fill="none" xmlns="http://www.w3.org/2000/svg">
<path d="M12.313 30.1891C25.922 30.1891 33.3676 18.9114 33.3676 9.13444C33.3676 8.81739 33.3605 8.4933 33.3465 8.17626C34.7949 7.1288 36.0448 5.83137 37.0376 4.34494C35.6886 4.9451 34.2564 5.33707 32.7899 5.50744C34.334 4.58183 35.4902 3.12775 36.0442 1.41474C34.5915 2.27566 33.0028 2.88296 31.3463 3.21062C30.2301 2.02466 28.7544 1.23941 27.1472 0.976278C25.54 0.713149 23.8909 0.986798 22.4548 1.75492C21.0187 2.52303 19.8757 3.74284 19.2024 5.22574C18.5291 6.70863 18.3631 8.37203 18.73 9.95876C15.7885 9.81115 12.9108 9.04703 10.2836 7.71594C7.65637 6.38484 5.3382 4.51649 3.47937 2.23201C2.53461 3.86088 2.24551 5.78837 2.67083 7.62274C3.09615 9.4571 4.20397 11.0607 5.76914 12.1076C4.5941 12.0703 3.44481 11.754 2.41621 11.1847V11.2763C2.41515 12.9856 3.00611 14.6426 4.08861 15.9656C5.17111 17.2885 6.67835 18.1958 8.35412 18.5331C7.26563 18.8309 6.12322 18.8743 5.01528 18.6599C5.48815 20.13 6.40818 21.4157 7.64697 22.3378C8.88577 23.2598 10.3815 23.7721 11.9255 23.8031C9.30429 25.862 6.06639 26.9788 2.73325 26.9735C2.14215 26.9726 1.55163 26.9364 0.964844 26.865C4.35095 29.0374 8.28991 30.1912 12.313 30.1891Z" fill="#001F24"/>
</svg>
