<svg width="668" height="668" viewBox="0 0 668 668" fill="none" xmlns="http://www.w3.org/2000/svg">
<path fill-rule="evenodd" clip-rule="evenodd" d="M334.001 668C334.001 483.537 184.464 334 0 334C184.464 334 334.001 184.463 334.001 0C334.001 184.463 483.537 334 668 334C483.537 334 334.001 483.537 334.001 668Z" fill="white"/>
<path d="M404.851 375.747C422.349 379.647 433.442 397.299 429.422 415.334C425.402 433.369 408.021 444.674 390.364 440.738C372.707 436.802 361.773 419.186 365.793 401.151C369.814 383.116 387.353 371.847 404.851 375.747ZM575.568 209.141C531.665 199.354 487.92 227.807 477.924 272.65L470.681 305.146L327.517 273.234C310.019 269.333 292.443 280.765 288.459 298.638L252.242 461.115C248.258 478.987 259.315 496.801 276.813 500.702L467.698 543.251C485.196 547.151 502.772 535.72 506.756 517.847L542.973 355.37C546.957 337.498 535.9 319.683 518.402 315.783L502.495 312.237L509.738 279.742C515.75 252.771 541.919 235.75 568.325 241.636C594.731 247.522 611.193 274.045 605.181 301.017L597.938 333.512L629.752 340.604L636.995 308.108C646.991 263.264 619.472 218.927 575.568 209.141ZM511.159 348.279L474.942 510.756L284.056 468.206L320.274 305.729L511.159 348.279Z" fill="#00363D"/>
<g clip-path="url(#clip0_871_602)">
<path d="M168.45 138.087L118.202 186.692L132.844 226.458C146.387 263.241 184.655 288.211 222.135 283.895C253.465 262.876 266.404 219.052 252.861 182.269L238.22 142.503L168.45 138.087ZM195.268 210.924L241.941 193.74C248.461 222.347 239.081 253.421 217.084 270.175L195.292 210.991L148.619 228.175L134.71 190.398L173.794 152.601L195.268 210.924Z" fill="#006874"/>
</g>
<defs>
<clipPath id="clip0_871_602">
<rect width="170.525" height="169.502" fill="white" transform="translate(86 160.918) rotate(-20.2131)"/>
</clipPath>
</defs>
</svg>
